<?xml version="1.0" encoding="UTF-8" standalone="no"?>
<!-- Generator: Adobe Illustrator 18.1.0, SVG Export Plug-In . SVG Version: 6.00 Build 0)  -->

<svg
   xmlns:dc="http://purl.org/dc/elements/1.1/"
   xmlns:cc="http://creativecommons.org/ns#"
   xmlns:rdf="http://www.w3.org/1999/02/22-rdf-syntax-ns#"
   xmlns:svg="http://www.w3.org/2000/svg"
   xmlns="http://www.w3.org/2000/svg"
   xmlns:sodipodi="http://sodipodi.sourceforge.net/DTD/sodipodi-0.dtd"
   xmlns:inkscape="http://www.inkscape.org/namespaces/inkscape"
   version="1.1"
   id="Ebene_1"
   x="0px"
   y="0px"
   viewBox="0 0 138.18897 184.25197"
   enable-background="new 0 0 560 960"
   xml:space="preserve"
   inkscape:version="0.91 r13725"
   sodipodi:docname="Zeichnung.svg"
   width="39mm"
   height="52mm"
   inkscape:export-filename="C:\Users\blafoo\Desktop\10Jahre Labor\Aufkleber\Aufkleber.png"
   inkscape:export-xdpi="300"
   inkscape:export-ydpi="300"><metadata
     id="metadata249"><rdf:RDF><cc:Work
         rdf:about=""><dc:format>image/svg+xml</dc:format><dc:type
           rdf:resource="http://purl.org/dc/dcmitype/StillImage" /><dc:title></dc:title></cc:Work></rdf:RDF></metadata><defs
     id="defs247" /><sodipodi:namedview
     pagecolor="#ffffff"
     bordercolor="#666666"
     borderopacity="1"
     objecttolerance="10"
     gridtolerance="10"
     guidetolerance="10"
     inkscape:pageopacity="0"
     inkscape:pageshadow="2"
     inkscape:window-width="1920"
     inkscape:window-height="1018"
     id="namedview245"
     showgrid="false"
     units="mm"
     inkscape:zoom="3.9333333"
     inkscape:cx="15.277625"
     inkscape:cy="100.62056"
     inkscape:window-x="-8"
     inkscape:window-y="-8"
     inkscape:window-maximized="1"
     inkscape:current-layer="Ebene_1"
     width="3.248cm" /><g
     id="g3577"
     transform="matrix(0.34829857,0,0,0.34829857,-29.543674,-53.131934)"><g
       id="g3"><polygon
         id="polygon5"
         points="194.5,347 206,377.4 213.2,375.8 220.9,367 224.4,373.4 233.6,371.4 225.6,344.4 213.5,358.4 199.7,321.8 186.6,336.9 164.8,296.4 182.8,360.4 " /><g
         id="g7"><g
           id="g9"><g
             id="g11"
             enable-background="new    "><g
               id="g13"><path
                 id="path15"
                 d="m 302.8,390 c 0.2,0 0.4,0.1 0.6,0.1 0.2,0 0.4,0.1 0.5,0.1 0.1,0 0.3,0.1 0.4,0.1 0.1,0 0.2,0.1 0.3,0.1 0.1,0.1 0.1,0.1 0.2,0.2 0.1,0.1 0.1,0.2 0.2,0.3 0.1,0.1 0.1,0.2 0.2,0.3 0.1,0.1 0.1,0.3 0.2,0.4 0,0.2 0.1,0.3 0.1,0.5 0,0.2 0.1,0.4 0.1,0.7 0,0.2 0,0.5 0.1,0.8 0,0.3 0,0.6 0,1 0,0.7 0,1.3 0,1.8 0,0.5 0,1 -0.1,1.4 0,0.4 -0.1,0.7 -0.1,1 0,0.3 -0.1,0.5 -0.2,0.6 -0.1,0.1 -0.1,0.2 -0.2,0.3 -0.1,0.1 -0.2,0.2 -0.3,0.2 -0.1,0.1 -0.3,0.1 -0.5,0.1 -0.2,0 -0.4,0 -0.6,0 -0.1,0 -0.1,0 -0.2,0 -0.1,0 -0.1,0 -0.2,0 -0.1,0 -0.1,0 -0.2,0 -0.1,0 -0.2,0 -0.3,0 l 0,-10 z"
                 inkscape:connector-curvature="0" /></g><g
               id="g17"><path
                 id="path19"
                 d="m 281.6,364.2 98.9,21.6 0,118.2 -98.9,21.6 0,-161.4 z m 61.9,137.8 10.4,-1.9 -5.7,-60.7 -15.5,-0.3 -5.8,66 11.6,-2.2 0.6,-11.6 3.8,-0.6 0.6,11.3 m 24.8,-25.5 6.3,-36.7 -8,-0.1 c -0.3,2.3 -0.6,4.4 -0.8,6.5 -0.3,2.1 -0.5,4.1 -0.7,6 -0.2,1.9 -0.4,3.8 -0.6,5.5 -0.2,1.7 -0.3,3.4 -0.4,5 0,-1 -0.1,-2.2 -0.2,-3.7 -0.1,-1.5 -0.3,-3.1 -0.4,-5.1 -0.2,-1.9 -0.4,-4.1 -0.7,-6.5 -0.3,-2.4 -0.6,-5 -0.9,-7.9 l -8.8,-0.2 6.8,38 0,21.5 8.5,-1.6 -0.1,-20.7 m -44.3,9.3 0,-23.4 c 0,-1.6 0,-3 0,-4.4 0,-1.3 0,-2.5 -0.1,-3.6 0,-1.1 -0.1,-2 -0.1,-2.8 -0.1,-0.8 -0.1,-1.5 -0.2,-2 -0.1,-0.5 -0.2,-1.1 -0.3,-1.6 -0.1,-0.5 -0.3,-1 -0.4,-1.5 -0.2,-0.5 -0.4,-1 -0.6,-1.4 -0.2,-0.5 -0.5,-0.9 -0.7,-1.4 -0.3,-0.4 -0.6,-0.9 -0.9,-1.3 -0.3,-0.4 -0.7,-0.7 -1.1,-1.1 -0.4,-0.3 -0.8,-0.6 -1.3,-0.9 -0.5,-0.3 -1,-0.5 -1.5,-0.7 -0.5,-0.2 -1.2,-0.4 -2,-0.6 -0.8,-0.2 -1.7,-0.3 -2.7,-0.4 -1,-0.1 -2.2,-0.2 -3.5,-0.3 -1.3,-0.1 -2.8,-0.1 -4.4,-0.2 l -10.3,-0.2 0,72.9 17,-3.2 c 0.8,-0.1 1.5,-0.3 2.1,-0.4 0.7,-0.2 1.3,-0.3 1.8,-0.5 0.6,-0.2 1.1,-0.3 1.5,-0.5 0.5,-0.2 0.9,-0.3 1.2,-0.5 0.4,-0.2 0.7,-0.4 1.1,-0.6 0.3,-0.2 0.7,-0.5 1,-0.7 0.3,-0.3 0.6,-0.5 0.9,-0.8 0.3,-0.3 0.5,-0.6 0.8,-0.9 0.2,-0.3 0.5,-0.7 0.7,-1.1 0.2,-0.4 0.4,-0.8 0.6,-1.2 0.2,-0.4 0.3,-0.9 0.4,-1.3 0.1,-0.5 0.2,-1 0.3,-1.5 0.1,-0.5 0.2,-1.2 0.3,-1.9 0.1,-0.8 0.1,-1.7 0.2,-2.7 0.1,-1 0.1,-2.1 0.1,-3.4 0.1,-1.1 0.1,-2.4 0.1,-3.9 m -30,-105.3 0,46.9 10.2,0.5 c 0.9,0 1.6,0.1 2.4,0.1 0.7,0 1.3,0 1.9,-0.1 0.6,0 1,-0.1 1.4,-0.2 0.4,-0.1 0.7,-0.2 1,-0.3 0.3,-0.1 0.5,-0.3 0.7,-0.4 0.2,-0.2 0.4,-0.4 0.6,-0.6 0.2,-0.2 0.4,-0.5 0.5,-0.8 0.2,-0.3 0.3,-0.6 0.4,-1 0.1,-0.4 0.2,-0.8 0.3,-1.2 0.1,-0.5 0.2,-1 0.2,-1.5 0.1,-0.5 0.1,-1.1 0.1,-1.8 0,-0.6 0,-1.3 0,-2.1 l 0,-4.1 c 0,-0.7 0,-1.4 -0.1,-2 0,-0.6 -0.1,-1.2 -0.2,-1.8 -0.1,-0.5 -0.2,-1 -0.3,-1.5 -0.1,-0.5 -0.3,-0.9 -0.4,-1.2 -0.2,-0.4 -0.4,-0.7 -0.6,-1 -0.2,-0.3 -0.5,-0.6 -0.9,-0.9 -0.3,-0.3 -0.7,-0.6 -1.1,-0.8 -0.4,-0.3 -0.8,-0.5 -1.3,-0.7 0.4,-0.1 0.8,-0.2 1.2,-0.3 0.4,-0.1 0.7,-0.3 1,-0.4 0.3,-0.2 0.5,-0.3 0.8,-0.5 0.2,-0.2 0.4,-0.4 0.5,-0.7 0.1,-0.2 0.3,-0.5 0.4,-0.9 0.1,-0.3 0.2,-0.7 0.3,-1.2 0.1,-0.4 0.1,-0.9 0.2,-1.5 0,-0.5 0.1,-1.1 0.1,-1.8 0,-1 0,-1.9 -0.1,-2.7 -0.1,-0.8 -0.1,-1.6 -0.2,-2.3 -0.1,-0.7 -0.2,-1.4 -0.4,-1.9 -0.2,-0.6 -0.3,-1.1 -0.5,-1.6 -0.2,-0.5 -0.4,-0.9 -0.7,-1.3 -0.2,-0.4 -0.5,-0.8 -0.8,-1.1 -0.3,-0.3 -0.6,-0.6 -0.9,-0.9 -0.3,-0.3 -0.6,-0.5 -1,-0.7 -0.3,-0.2 -0.7,-0.4 -1.1,-0.6 -0.4,-0.2 -0.9,-0.4 -1.4,-0.5 -0.5,-0.2 -1.1,-0.3 -1.6,-0.5 -0.6,-0.1 -1.2,-0.3 -1.9,-0.4 l -8.7,-1.7 m 81.1,50.9 0,-36.2 -5.5,-1 0,13.2 -1.7,-0.2 0,-13.3 -5.8,-1.1 0,37.9 5.8,0.3 0,-15.6 1.7,0.2 0,15.5 5.5,0.3 m -46.9,-44.7 0,42.4 7.3,0.4 0,-18.7 c 0.2,0 0.5,0.1 0.7,0.1 0.2,0.1 0.4,0.1 0.5,0.2 0.1,0.1 0.3,0.2 0.4,0.3 0.1,0.1 0.2,0.2 0.2,0.4 0.1,0.1 0.1,0.3 0.2,0.6 0,0.2 0.1,0.5 0.1,0.9 0,0.3 0.1,0.7 0.1,1.2 0,0.4 0,0.9 0,1.5 l 0,13.7 6.4,0.3 0,-10.6 c 0,-0.8 0,-1.5 0,-2.2 0,-0.7 0,-1.2 0,-1.7 0,-0.5 0,-0.9 -0.1,-1.3 -0.1,-0.4 0,-0.6 -0.1,-0.8 0,-0.2 -0.1,-0.4 -0.1,-0.6 -0.1,-0.2 -0.1,-0.4 -0.2,-0.6 -0.1,-0.2 -0.2,-0.4 -0.2,-0.6 -0.1,-0.2 -0.2,-0.4 -0.3,-0.7 -0.1,-0.2 -0.3,-0.4 -0.4,-0.7 -0.2,-0.2 -0.4,-0.4 -0.6,-0.6 -0.2,-0.2 -0.5,-0.4 -0.8,-0.6 -0.3,-0.2 -0.6,-0.4 -0.9,-0.5 0.4,0 0.7,-0.1 1,-0.1 0.3,-0.1 0.6,-0.2 0.8,-0.3 0.2,-0.1 0.5,-0.3 0.7,-0.5 0.2,-0.2 0.3,-0.4 0.5,-0.7 0.1,-0.3 0.2,-0.6 0.3,-1 0.1,-0.4 0.2,-0.8 0.2,-1.4 0.1,-0.5 0.1,-1.1 0.1,-1.8 0,-0.6 0,-1.4 0,-2.1 0,-0.9 0,-1.7 -0.1,-2.4 0,-0.7 -0.1,-1.4 -0.2,-2.1 -0.1,-0.6 -0.2,-1.2 -0.3,-1.8 -0.1,-0.5 -0.3,-1 -0.5,-1.4 -0.2,-0.4 -0.4,-0.8 -0.6,-1.2 -0.2,-0.4 -0.4,-0.7 -0.7,-1 -0.2,-0.3 -0.5,-0.5 -0.7,-0.8 -0.3,-0.2 -0.5,-0.4 -0.8,-0.5 -0.3,-0.1 -0.6,-0.3 -1.1,-0.4 -0.4,-0.1 -0.9,-0.3 -1.5,-0.5 -0.6,-0.2 -1.2,-0.3 -1.9,-0.5 -0.7,-0.2 -1.5,-0.3 -2.3,-0.5 l -5.1,-0.8 m 18,3.3 0,8 3.9,0.6 0,31.6 6.3,0.3 0,-30.9 3.6,0.6 0,-7.6 -13.8,-2.6 m -21.3,38.9 0,-42.8 -7.8,-1.4 0,43.8 7.8,0.4"
                 inkscape:connector-curvature="0" /></g><g
               id="g21"><path
                 id="path23"
                 d="m 341.1,453.3 c 0.1,2.6 0.3,5.2 0.4,7.6 0.1,2.4 0.3,4.7 0.4,6.9 0.1,2.2 0.3,4.3 0.4,6.3 0.1,2 0.3,3.9 0.4,5.6 l -3.7,0.4 c 0.1,-1.4 0.2,-3 0.3,-4.9 0.1,-1.8 0.3,-3.9 0.4,-6.1 0.2,-2.2 0.4,-4.7 0.6,-7.3 0.2,-2.6 0.5,-5.5 0.8,-8.5 z"
                 inkscape:connector-curvature="0" /></g><g
               id="g25"><path
                 id="path27"
                 d="m 335.5,395.1 c 0.2,0 0.4,0.1 0.6,0.1 0.2,0.1 0.3,0.1 0.5,0.2 0.1,0.1 0.3,0.2 0.4,0.2 0.1,0.1 0.2,0.2 0.3,0.3 0.1,0.1 0.1,0.3 0.2,0.4 0.1,0.2 0.1,0.4 0.1,0.6 0,0.2 0.1,0.5 0.1,0.7 0,0.3 0,0.6 0,0.9 l 0,2.2 c 0,0.5 0,0.9 0,1.2 0,0.4 0,0.7 -0.1,0.9 0,0.3 -0.1,0.5 -0.1,0.6 -0.1,0.2 -0.1,0.3 -0.2,0.4 -0.1,0.1 -0.2,0.1 -0.3,0.2 -0.1,0 -0.2,0.1 -0.4,0.1 -0.1,0 -0.3,0 -0.5,0 -0.2,0 -0.4,0 -0.6,0 l 0,-9 z"
                 inkscape:connector-curvature="0" /></g><g
               id="g29"><path
                 id="path31"
                 d="m 307.6,450.5 c 0.4,0 0.7,0 1,0 0.3,0 0.6,0.1 0.8,0.1 0.2,0 0.5,0.1 0.6,0.2 0.2,0.1 0.3,0.2 0.5,0.3 0.1,0.1 0.2,0.2 0.3,0.4 0.1,0.1 0.2,0.3 0.3,0.4 0.1,0.2 0.1,0.3 0.2,0.5 0.1,0.2 0.1,0.4 0.1,0.6 0,0.2 0.1,0.5 0.1,0.9 0,0.4 0.1,0.8 0.1,1.3 0,0.5 0,1.1 0,1.7 0,0.6 0,1.4 0,2.1 l 0,27 c 0,1.2 0,2.2 0,3.1 0,0.9 -0.1,1.8 -0.1,2.5 -0.1,0.7 -0.1,1.3 -0.2,1.8 -0.1,0.5 -0.2,0.9 -0.3,1.2 -0.1,0.3 -0.3,0.5 -0.5,0.8 -0.2,0.2 -0.4,0.4 -0.7,0.6 -0.3,0.2 -0.6,0.3 -1,0.4 -0.4,0.1 -0.8,0.2 -1.3,0.3 l 0,-46.2 0.1,0 z"
                 inkscape:connector-curvature="0" /></g><g
               id="g33"><path
                 id="path35"
                 d="m 302.8,407.2 c 0.3,0 0.6,0.1 0.9,0.2 0.3,0.1 0.5,0.1 0.7,0.2 0.2,0.1 0.4,0.2 0.5,0.3 0.1,0.1 0.2,0.2 0.3,0.3 0.1,0.1 0.1,0.3 0.2,0.5 0.1,0.2 0.1,0.5 0.1,0.8 0,0.3 0.1,0.6 0.1,1 0,0.4 0,0.8 0,1.3 l 0,4.2 c 0,0.5 0,0.9 0,1.2 0,0.4 -0.1,0.7 -0.1,1 0,0.3 -0.1,0.5 -0.2,0.7 -0.1,0.2 -0.1,0.4 -0.2,0.5 -0.1,0.1 -0.2,0.2 -0.3,0.3 -0.1,0.1 -0.3,0.1 -0.5,0.2 -0.2,0.1 -0.4,0.1 -0.7,0.1 -0.2,0 -0.5,0 -0.8,0 l 0,-12.8 z"
                 inkscape:connector-curvature="0" /></g></g></g><g
           id="g37"><path
             id="path39"
             d="m 223,490.7 c -0.1,0.4 -0.1,0.7 -0.2,1.1 -0.1,0.4 -0.1,0.7 -0.2,1 -0.1,0.3 -0.1,0.7 -0.2,1 -0.1,0.3 -0.1,0.6 -0.2,1 l -0.1,0.6 1.6,0.3 -0.1,-0.7 c -0.1,-0.3 -0.1,-0.6 -0.2,-0.9 -0.1,-0.3 -0.1,-0.6 -0.2,-1 -0.1,-0.3 -0.1,-0.7 -0.2,-1 0,-0.3 -0.1,-0.7 -0.1,-1 l 0.1,-0.4 z"
             inkscape:connector-curvature="0" /><path
             id="path41"
             d="m 236.4,397.9 c -0.6,0.1 -1.1,0.2 -1.6,0.5 -0.5,0.2 -0.9,0.5 -1.3,0.9 -0.4,0.4 -0.8,0.8 -1.1,1.3 -0.3,0.5 -0.6,1.1 -0.9,1.8 -0.3,0.7 -0.5,1.4 -0.8,2.2 -0.2,0.7 -0.4,1.5 -0.6,2.3 -0.2,0.8 -0.3,1.6 -0.4,2.4 -0.1,0.8 -0.2,1.7 -0.3,2.6 -0.1,0.9 -0.1,1.8 -0.2,2.8 0,1 -0.1,2 -0.1,3 0,1 -0.1,2.1 -0.1,3.3 0,1.1 0,2.3 0,3.5 0,2 0,3.9 0.1,5.7 0.1,1.8 0.1,3.5 0.2,5.1 0.1,1.6 0.2,3.1 0.4,4.4 0.2,1.4 0.4,2.6 0.6,3.7 0.2,1.1 0.5,2 0.8,2.8 0.3,0.8 0.8,1.5 1.3,2 0.5,0.5 1.1,0.9 1.7,1.2 0.7,0.3 1.4,0.4 2.2,0.4 0.8,0 1.6,-0.1 2.3,-0.4 0.7,-0.3 1.3,-0.7 1.8,-1.2 0.5,-0.5 1,-1.2 1.4,-2 0.4,-0.8 0.7,-1.8 0.9,-2.9 0.2,-1.2 0.4,-2.5 0.6,-3.9 0.2,-1.4 0.3,-3 0.4,-4.6 0.1,-1.7 0.2,-3.4 0.3,-5.3 0.1,-1.9 0.1,-3.9 0.1,-6 0,-2 0,-3.9 -0.1,-5.7 -0.1,-1.8 -0.1,-3.5 -0.3,-5.1 -0.1,-1.6 -0.3,-3.1 -0.4,-4.6 -0.2,-1.4 -0.4,-2.8 -0.6,-4 -0.2,-1.2 -0.5,-2.2 -0.9,-3 -0.4,-0.8 -0.8,-1.5 -1.4,-2 -0.5,-0.5 -1.1,-0.9 -1.8,-1.1 -0.6,-0.2 -1.3,-0.2 -2.2,-0.1 z"
             inkscape:connector-curvature="0" /><path
             id="path43"
             d="m 281.6,525.7 -99,-21.5 0,-118.6 99,-21.4 0,161.5 z m -14.2,-126 c -0.5,-1.5 -1,-3 -1.6,-4.4 -0.6,-1.4 -1.2,-2.7 -1.9,-3.9 -0.7,-1.2 -1.4,-2.4 -2.1,-3.4 -0.7,-1.1 -1.5,-2 -2.4,-2.9 -0.8,-0.9 -1.7,-1.7 -2.5,-2.4 -0.9,-0.7 -1.8,-1.4 -2.7,-2 -0.9,-0.6 -1.8,-1.1 -2.8,-1.5 -0.9,-0.4 -1.9,-0.8 -2.9,-1.1 -1,-0.3 -2,-0.5 -3,-0.7 -1,-0.2 -2,-0.2 -3,-0.3 -1,0 -2,0 -3.1,0.1 -1,0.1 -2.1,0.2 -3.1,0.5 -1,0.2 -2,0.5 -3,0.8 -1,0.3 -1.9,0.7 -2.9,1.1 -0.9,0.4 -1.9,0.9 -2.8,1.4 -0.9,0.5 -1.8,1.1 -2.6,1.7 -0.9,0.6 -1.7,1.3 -2.5,2 -0.8,0.7 -1.6,1.5 -2.3,2.3 -0.7,0.8 -1.4,1.7 -2.1,2.6 -0.7,0.9 -1.3,1.9 -1.9,2.9 -0.6,1 -1.2,2 -1.8,3.1 -0.5,1.1 -1.1,2.2 -1.5,3.4 -0.5,1.2 -0.9,2.4 -1.3,3.7 -0.4,1.3 -0.8,2.6 -1.1,4 -0.3,1.4 -0.6,2.8 -0.9,4.3 -0.3,1.5 -0.5,3 -0.6,4.6 -0.2,1.6 -0.3,3.2 -0.4,4.9 -0.1,1.7 -0.1,3.4 -0.1,5.2 0,1.8 0,3.5 0.1,5.2 0.1,1.7 0.2,3.3 0.4,4.8 0.2,1.6 0.4,3.1 0.6,4.5 0.3,1.4 0.6,2.8 0.9,4.2 0.3,1.3 0.7,2.6 1.1,3.9 0.4,1.2 0.9,2.4 1.4,3.5 0.5,1.1 1,2.2 1.6,3.2 0.6,1 1.1,2 1.8,2.9 0.6,0.9 1.3,1.8 2,2.6 0.7,0.8 1.4,1.6 2.1,2.3 0.7,0.7 1.5,1.4 2.3,2 0.8,0.6 1.6,1.2 2.5,1.7 0.9,0.5 1.7,1 2.6,1.3 0.9,0.4 1.8,0.7 2.8,1 0.9,0.3 1.9,0.5 2.9,0.7 1,0.2 2,0.3 3,0.4 1,0.1 2.1,0.1 3.1,0.1 1,0 2.1,-0.1 3.1,-0.3 1,-0.2 2,-0.4 3,-0.7 1,-0.3 2,-0.6 3,-1 1,-0.4 2,-0.9 2.9,-1.4 1,-0.6 1.9,-1.2 2.8,-1.9 0.9,-0.7 1.8,-1.4 2.7,-2.3 0.9,-0.8 1.7,-1.7 2.5,-2.7 0.8,-1 1.6,-2 2.3,-3.2 0.7,-1.1 1.4,-2.4 2.1,-3.6 0.7,-1.3 1.3,-2.7 1.9,-4.1 0.6,-1.5 1.1,-3 1.6,-4.6 0.5,-1.6 0.9,-3.3 1.3,-5 0.4,-1.7 0.7,-3.6 0.9,-5.4 0.2,-1.9 0.4,-3.8 0.6,-5.8 0.1,-2 0.2,-4.1 0.2,-6.2 0,-2.1 -0.1,-4.2 -0.2,-6.2 -0.1,-2 -0.3,-3.9 -0.6,-5.8 -0.2,-1.9 -0.6,-3.6 -0.9,-5.3 -0.6,-1.7 -1.1,-3.3 -1.5,-4.8 m -61.2,-14.6 -17.2,3.5 0,76.9 17.2,1.3 0,-81.7 m -17.2,85.1 0,5.5 78.1,8.6 0,-7 -78.1,-7.1 m 31.5,35.2 0.7,-4.5 3.5,0.6 0.8,4.8 5.5,1.1 -5.1,-24.3 -5.6,-0.7 -4.8,22 5,1 m -27.8,-12.6 0,7.3 4.1,0.8 0,-7.4 4.2,-13.3 -4.5,-0.5 -1,4.4 c 0,0.1 -0.1,0.3 -0.1,0.4 0,0.1 -0.1,0.3 -0.1,0.4 0,0.1 -0.1,0.3 -0.1,0.4 0,0.1 -0.1,0.3 -0.1,0.4 0,0.1 0,0.2 -0.1,0.3 0,0.1 0,0.2 -0.1,0.3 0,0.1 0,0.2 -0.1,0.3 0,0.1 0,0.2 -0.1,0.3 l -0.1,-0.4 c 0,-0.2 -0.1,-0.4 -0.1,-0.6 0,-0.2 -0.1,-0.4 -0.1,-0.6 0,-0.2 -0.1,-0.4 -0.1,-0.6 0,-0.2 -0.1,-0.4 -0.1,-0.7 l -1,-4.7 -4.4,-0.5 3.9,14 m 41.1,15.2 5.5,1.1 0,-7.7 0.8,0.1 3,8.3 6.5,1.3 -4,-10.3 c 0.3,-0.2 0.7,-0.5 1,-0.9 0.3,-0.4 0.6,-0.8 0.9,-1.3 0.3,-0.5 0.5,-1.2 0.6,-1.9 0.1,-0.7 0.2,-1.6 0.2,-2.5 0,-0.9 -0.1,-2 -0.3,-2.9 -0.2,-1 -0.6,-2 -1.2,-2.8 -0.6,-0.9 -1.3,-1.6 -2.3,-2.2 -1,-0.6 -2.2,-1 -3.8,-1.2 l -6.9,-0.8 0,23.7 m 18.1,0.4 c 0.5,0.7 1,1.3 1.6,1.8 0.6,0.6 1.2,1.1 1.8,1.5 0.6,0.4 1.3,0.8 2,1.1 0.7,0.3 1.4,0.5 2.1,0.7 1.3,0.3 2.5,0.2 3.5,-0.1 1,-0.3 1.9,-0.8 2.6,-1.5 0.7,-0.7 1.2,-1.5 1.6,-2.5 0.4,-1 0.5,-2 0.5,-3.1 0,-0.9 -0.1,-1.7 -0.3,-2.5 -0.2,-0.8 -0.4,-1.5 -0.8,-2.2 -0.4,-0.7 -0.8,-1.3 -1.3,-1.9 -0.5,-0.6 -1.1,-1.1 -1.8,-1.5 l -2.8,-1.8 c -0.3,-0.2 -0.6,-0.4 -0.8,-0.5 -0.2,-0.2 -0.5,-0.3 -0.6,-0.5 -0.2,-0.1 -0.3,-0.3 -0.4,-0.4 -0.1,-0.1 -0.1,-0.3 -0.1,-0.4 0,-0.2 0.1,-0.3 0.1,-0.4 0.1,-0.1 0.2,-0.2 0.4,-0.2 0.1,0 0.3,-0.1 0.5,-0.1 0.2,0 0.3,0 0.4,0 0.3,0 0.6,0.1 0.9,0.2 0.3,0.1 0.6,0.2 0.8,0.4 0.3,0.2 0.6,0.4 0.9,0.6 0.3,0.2 0.6,0.5 0.9,0.9 l 0.5,0.5 3.3,-4.8 -0.4,-0.5 c -0.5,-0.6 -1,-1.2 -1.5,-1.7 -0.5,-0.5 -1.1,-0.9 -1.7,-1.3 -0.6,-0.4 -1.2,-0.7 -1.8,-0.9 -0.6,-0.2 -1.3,-0.4 -1.9,-0.5 -1.1,-0.1 -2.1,0 -3,0.3 -0.9,0.3 -1.7,0.8 -2.4,1.4 -0.7,0.6 -1.2,1.5 -1.6,2.4 -0.4,0.9 -0.6,2 -0.6,3.2 0,0.8 0.1,1.6 0.3,2.4 0.2,0.8 0.4,1.5 0.8,2.2 0.3,0.7 0.8,1.3 1.3,1.9 0.5,0.6 1.1,1.1 1.7,1.5 l 2.8,1.9 c 0.3,0.2 0.6,0.4 0.8,0.6 0.2,0.2 0.4,0.3 0.6,0.4 0.1,0.1 0.2,0.3 0.3,0.4 0.1,0.1 0.1,0.2 0.1,0.3 0,0.1 0,0.2 0,0.3 0,0.1 -0.1,0.2 -0.2,0.3 -0.1,0.1 -0.2,0.1 -0.5,0.2 -0.2,0 -0.5,0 -0.9,-0.1 -0.3,-0.1 -0.6,-0.2 -1,-0.3 -0.3,-0.2 -0.7,-0.4 -1,-0.6 -0.3,-0.2 -0.7,-0.5 -1,-0.9 -0.3,-0.3 -0.7,-0.7 -1,-1.1 l -0.6,-0.5 -3.5,4.8 0.4,0.6 m -48.6,-6.3 10.1,2 0,-6 -5.6,-1 0,-2.4 4.6,0.8 0,-6 -4.6,-0.7 0,-1.9 5.4,0.8 0,-6 -9.8,-1.2 -0.1,21.6"
             inkscape:connector-curvature="0" /><path
             id="path45"
             d="m 239.3,491 0,4.2 1.1,0.2 c 0.5,0.1 1,0 1.3,-0.1 0.3,-0.1 0.5,-0.3 0.7,-0.6 0.1,-0.2 0.2,-0.5 0.2,-0.7 0,-0.2 0,-0.5 0,-0.6 0,-0.2 0,-0.5 -0.1,-0.7 0,-0.2 -0.1,-0.4 -0.3,-0.6 -0.1,-0.2 -0.4,-0.4 -0.7,-0.5 -0.3,-0.1 -0.7,-0.3 -1.2,-0.3 l -1,-0.3 z"
             inkscape:connector-curvature="0" /></g></g><g
         id="g47"><path
           id="path49"
           d="m 283,361.5 0,-117.2 5.1,18.9 0.1,0.1 0.1,0 0,0 2.3,-0.6 c 0.1,0 0.1,-0.1 0.1,-0.2 l -5.1,-18.9 17.4,30.2 c 0,0.1 0.1,0.1 0.1,0.1 l 0.1,0 1.9,-1.1 0.1,-0.1 0,-0.1 -17.4,-30.2 13.8,13.8 0.1,0 0.1,0 1.7,-1.7 c 0.1,-0.1 0.1,-0.2 0,-0.2 l -13.8,-13.8 30.2,17.4 0.1,0 c 0.1,0 0.1,0 0.1,-0.1 l 1.1,-1.9 0,-0.1 c 0,0 0,-0.1 -0.1,-0.1 l -30.1,-17.4 18.9,5.1 0,0 c 0.1,0 0.1,0 0.2,-0.1 l 0.6,-2.3 0,-0.1 -0.1,0.1 -18.9,-4.9 34.9,0 c 0.1,0 0.5,-0.3 0.5,-0.4 l 0,-2.2 c 0,-0.1 -0.4,-0.4 -0.5,-0.4 l -34.9,0 18.9,-4.9 0.1,0 0,-0.1 -0.6,-2.3 c 0,-0.1 -0.1,-0.1 -0.2,-0.1 l -18.9,5.1 30.2,-17.4 0.1,-0.1 0,-0.1 -1.1,-1.9 c 0,-0.1 -0.1,-0.1 -0.2,-0.1 l -30.2,17.4 13.8,-13.8 c 0.1,-0.1 0.1,-0.2 0,-0.2 l -1.7,-1.7 c -0.1,-0.1 -0.2,-0.1 -0.2,0 l -13.8,13.8 17.4,-30.2 0,-0.1 c 0,0 0,-0.1 -0.1,-0.1 l -1.9,-1.1 c -0.1,0 -0.2,0 -0.2,0.1 l -17.4,30.2 5.1,-18.9 0,-0.1 -0.1,-0.1 -2.3,-0.6 c -0.1,0 -0.2,0 -0.3,0.1 l -5.1,18.9 0,-34.9 c 0,-0.1 0,-0.8 -0.1,-0.8 l -2.2,0 c -0.1,0 -0.8,0.7 -0.8,0.8 l 0,34.9 -4.8,-18.9 c 0,-0.1 0,-0.1 -0.1,-0.1 l -2.2,0.6 c 0,0 0,0 -0.1,0.1 -0.1,0.1 0,0.1 0,0.1 l 5.1,18.9 -17.4,-30.2 c 0,-0.1 -0.1,-0.1 -0.2,-0.1 l -1.9,1.1 -0.1,0.1 0,0.1 17.4,30.2 -13.6,-14 c -0.1,-0.1 -0.2,-0.1 -0.2,0 l -1.7,1.7 0,0.1 0,0.1 13.8,13.8 -30.2,-17.4 -0.1,0 c 0,0 -0.1,0 -0.1,0.1 l -1.1,1.9 c 0,0.1 0,0.2 0.1,0.2 l 30.2,17.4 -18.9,-5.1 -0.1,0 -0.1,0.1 -0.6,2.4 c 0,0.1 0,0.1 0.1,0.1 l 18.9,4.9 -34.9,0 c -0.1,0 -1.2,0.3 -1.2,0.4 l 0,2.2 c 0,0.1 1.1,0.4 1.2,0.4 l 34.9,0 -18.9,4.9 c -0.1,0 -0.1,0 -0.1,0.1 l 0.6,2.2 c 0,0 0,0.1 0.1,0.1 l 0.1,0 0,0 18.9,-5.1 -30.2,17.4 c -0.1,0 -0.1,0.1 -0.1,0.2 l 1.1,1.9 0.1,0.1 0,0 0.1,0 30.2,-17.4 -13.8,13.8 0,0.1 0,0.1 1.7,1.7 0.1,0 0.1,0 13.8,-13.8 -17.4,30.2 0,0.1 c 0,0 0,0.1 0.1,0.1 l 1.9,1.1 0.1,0 c 0.1,0 0.1,0 0.1,-0.1 l 17.4,-30.2 -5.1,18.9 c 0,0.1 0,0.2 0.1,0.2 l 2.3,0.6 0,0 0.1,0 -0.2,-0.1 4.8,-18.9 0,117.2 1.5,-0.3 1.5,0.4 z"
           inkscape:connector-curvature="0" /></g><circle
         id="circle51"
         r="5.5"
         cy="356.79999"
         cx="293.39999" /><circle
         id="circle53"
         r="3.2"
         cy="366.10001"
         cx="177.10001" /><circle
         id="circle55"
         r="3.2"
         cy="344"
         cx="275.79999" /><circle
         id="circle57"
         r="3.2"
         cy="355.79999"
         cx="256.89999" /><circle
         id="circle59"
         r="3.2"
         cy="345.70001"
         cx="168.3" /><circle
         id="circle61"
         r="3.2"
         cy="367.10001"
         cx="192.2" /><circle
         id="circle63"
         r="3.8"
         cy="327.89999"
         cx="291" /><circle
         id="circle65"
         r="3.8"
         cy="333.39999"
         cx="212.10001" /><circle
         id="circle67"
         r="3.8"
         cy="305.70001"
         cx="301.29999" /><circle
         id="circle69"
         r="1.5"
         cy="359.70001"
         cx="249.2" /><circle
         id="circle71"
         r="1.5"
         cy="358.20001"
         cx="265.70001" /><circle
         id="circle73"
         r="1.5"
         cy="293.29999"
         cx="178.7" /><circle
         id="circle75"
         r="3.2"
         cy="374.39999"
         cx="374.70001" /><circle
         id="circle77"
         r="1.5"
         cy="373.60001"
         cx="363.89999" /><circle
         id="circle79"
         r="1.5"
         cy="366.29999"
         cx="247.7" /><circle
         id="circle81"
         r="1.5"
         cy="320.10001"
         cx="294.79999" /><circle
         id="circle83"
         r="1.5"
         cy="375.10001"
         cx="197.39999" /><circle
         id="circle85"
         r="1.5"
         cy="279.20001"
         cx="371.5" /><circle
         id="circle87"
         r="1.5"
         cy="322"
         cx="400.39999" /><circle
         id="circle89"
         r="1.5"
         cy="276.79999"
         cx="323.79999" /><circle
         id="circle91"
         r="1.5"
         cy="318"
         cx="197.39999" /><circle
         id="circle93"
         r="1.5"
         cy="342.5"
         cx="145" /><circle
         id="circle95"
         r="1.5"
         cy="336"
         cx="169.8" /><circle
         id="circle97"
         r="3.2"
         cy="339.79999"
         cx="331.89999" /><circle
         id="circle99"
         r="3.2"
         cy="340.79999"
         cx="298.89999" /><circle
         id="circle101"
         r="3.2"
         cy="287.39999"
         cx="274" /><circle
         id="circle103"
         r="1.5"
         cy="355.79999"
         cx="274" /><circle
         id="circle105"
         r="1.5"
         cy="336.89999"
         cx="220.39999" /><circle
         id="circle107"
         r="1.5"
         cy="362.20001"
         cx="313" /><circle
         id="circle109"
         r="1.5"
         cy="287.39999"
         cx="301.29999" /><circle
         id="circle111"
         r="1.5"
         cy="333.39999"
         cx="340.79999" /><circle
         id="circle113"
         r="1.5"
         cy="297.29999"
         cx="307.60001" /><circle
         id="circle115"
         r="1.5"
         cy="292.5"
         cx="208.10001" /><circle
         id="circle117"
         r="1.5"
         cy="291"
         cx="248.5" /><circle
         id="circle119"
         r="1.5"
         cy="334.89999"
         cx="274" /><circle
         id="circle121"
         r="3.2"
         cy="354.10001"
         cx="315.10001" /><circle
         id="circle123"
         r="1.5"
         cy="361.20001"
         cx="302.10001" /><circle
         id="circle125"
         r="1.5"
         cy="362.20001"
         cx="162.39999" /><circle
         id="circle127"
         r="1.5"
         cy="350.39999"
         cx="305.10001" /><polygon
         id="polygon129"
         points="379.6,285.3 364.8,298.7 371.7,302.2 359.8,310.3 365.9,313.5 343.8,326 356.8,314.2 350.1,310.7 362.3,302.3 356.1,299.1 " /><polygon
         id="polygon131"
         points="183.2,276.8 193,294.1 197.9,288.3 203.3,301.6 207.6,296.3 215,320.6 206.4,305.3 201.5,311.2 196,297.3 191.4,302.8 " /><path
         id="path133"
         d="m 406.3,349.6 c -1.3,-2.2 -4.3,-3 -6.4,-1.7 -1.4,0.8 -2.3,2.3 -2.3,4 l -4.5,2.7 -9.1,-15.6 -7.2,4.3 -4.4,-7.4 11.7,-6.9 c 1.4,0.7 3.2,0.7 4.6,-0.1 2.2,-1.3 3,-4.2 1.6,-6.4 -1.3,-2.2 -4.3,-2.9 -6.4,-1.7 -1.4,0.8 -2.3,2.3 -2.3,3.9 l -3.5,2.1 -2.9,-4.9 c 0.6,-1.4 0.5,-2.9 -0.2,-4.3 -1.3,-2.2 -4.3,-2.9 -6.4,-1.7 -1.1,0.6 -1.9,1.7 -2.2,2.9 -0.3,1.2 -0.1,2.5 0.5,3.6 0.9,1.4 2.4,2.3 4.1,2.3 l 2.7,4.6 -8.2,4.9 6.9,11.6 -8,4.7 -5.4,-9.1 c 0.8,-1.4 0.7,-3.2 -0.1,-4.6 -1.3,-2.1 -4.3,-2.9 -6.4,-1.7 -1.1,0.6 -1.9,1.7 -2.2,2.9 -0.3,1.2 -0.1,2.5 0.5,3.5 0.8,1.4 2.3,2.3 4,2.3 l 2.7,4.5 -15.5,9.2 4.3,7.2 -7.4,4.4 -6.9,-11.7 c 0.8,-1.4 0.7,-3.2 -0.1,-4.6 -1.3,-2.1 -4.3,-2.9 -6.4,-1.6 -1.1,0.6 -1.9,1.7 -2.2,2.9 -0.3,1.2 -0.1,2.5 0.5,3.6 0.8,1.4 2.3,2.3 3.9,2.3 l 2.1,3.5 -4.9,2.9 c -1.4,-0.6 -3,-0.5 -4.3,0.3 -0.8,0.5 -1.4,1.1 -1.8,1.9 l 9,2 4.4,-2.6 2.4,4.1 6.8,1.5 7.2,-4.3 4,6.7 6.6,1.4 -10.5,-17.9 11.2,-6.6 4.1,7 c -0.8,1.4 -0.8,3.2 0.1,4.6 1.3,2.1 4.3,2.9 6.5,1.7 1.1,-0.6 1.8,-1.7 2.2,-2.9 0.3,-1.2 0.1,-2.5 -0.5,-3.6 -0.8,-1.4 -2.3,-2.3 -4,-2.3 l -1.5,-2.5 15.2,-9 6.6,11.2 -7,4.1 c -1.4,-0.8 -3.2,-0.7 -4.6,0.1 -2.2,1.3 -3,4.2 -1.7,6.5 0.8,1.4 2.4,2.3 4,2.3 0.8,0 1.7,-0.2 2.4,-0.7 1.4,-0.8 2.2,-2.3 2.3,-4 l 15.8,-9.3 c 0.7,0.4 1.4,0.6 2.2,0.6 0.8,0 1.6,-0.2 2.3,-0.6 1.1,-0.6 1.8,-1.7 2.2,-2.9 0.7,-1.3 0.5,-2.5 -0.2,-3.6 z"
         inkscape:connector-curvature="0" /><circle
         id="circle135"
         r="1.5"
         cy="366.29999"
         cx="237.10001" /><path
         id="path137"
         d="m 267.2,316 c 5.3,0 9.6,-4.3 9.6,-9.6 0,-5.3 -4.3,-9.6 -9.6,-9.6 -5.3,0 -9.6,4.3 -9.6,9.6 0,5.3 4.3,9.6 9.6,9.6 z m -5,-11 c -0.3,-0.3 -0.6,-0.4 -0.8,-0.8 -0.5,-0.9 0.2,-1.9 1.2,-1.8 0.3,0 0.5,0.2 0.8,0.2 1.3,0.3 2.3,-0.5 2.6,-1.5 0.1,-0.2 0.1,-0.6 0.2,-0.8 0.2,-0.4 0.5,-0.7 1.1,-0.7 0.6,0 1,0.3 1.1,0.7 0.1,0.3 0.1,0.5 0.1,0.7 0.3,1 1.3,1.8 2.6,1.5 0.4,-0.1 0.9,-0.4 1.4,-0.2 0.5,0.2 0.9,0.9 0.6,1.6 -0.2,0.4 -0.6,0.6 -0.9,1 -0.2,0.3 -0.4,0.6 -0.4,1.1 -0.1,0.7 0.1,1.2 0.4,1.6 0.3,0.4 0.8,0.6 0.9,1.1 0.3,0.9 -0.4,1.7 -1.2,1.6 -0.4,0 -0.7,-0.3 -1.1,-0.3 -1.1,-0.1 -2.1,0.5 -2.4,1.6 -0.1,0.2 0,0.6 -0.2,0.8 -0.1,0.2 -0.4,0.5 -0.6,0.6 -0.6,0.2 -1.4,0 -1.6,-0.7 -0.1,-0.2 -0.1,-0.5 -0.1,-0.7 -0.3,-1.1 -1.4,-1.8 -2.6,-1.5 -0.3,0.1 -0.4,0.2 -0.7,0.2 -0.7,0.1 -1.3,-0.4 -1.4,-0.9 -0.3,-1.1 0.7,-1.3 1.1,-1.9 0.5,-0.7 0.4,-1.8 -0.1,-2.5 z"
         inkscape:connector-curvature="0" /><path
         id="path139"
         d="m 315.5,341.7 c 1.1,-0.3 2.3,-1.4 3.4,-2.4 1.1,-1 2.4,-2 3.4,-2.8 4.2,-3.6 9.2,-9 12.6,-14.8 1.6,-2.8 2.8,-5.6 4,-8.2 1.8,-4 3.7,-8.2 6,-12.3 0.8,-1.4 1.7,-2.6 2.5,-3.9 2,-3 4,-5.6 6.2,-8 2.2,-2.3 4.6,-4.3 6.4,-7 0.1,-0.4 -1,-2.1 -1.1,-2.5 0.4,-1.1 1.7,-2.3 2.3,-3.5 -0.1,-0.5 -0.5,-1.1 -1.1,-1.6 5.4,-7.5 10.5,-14.1 15.7,-21.3 1,-1.3 1.7,-2.8 2.5,-4.2 0.8,-1.4 1.7,-2.8 2.5,-4.2 0.8,-1.4 1.7,-2.9 2.5,-4.2 0.8,-1.2 1.7,-2.4 2.5,-3.5 L 396,223.5 c 0,-0.1 0,-0.3 0.1,-0.4 l 1.4,-1.9 c -0.2,-0.1 -0.4,-0.3 -0.6,-0.4 -0.2,-0.1 -0.4,-0.3 -0.6,-0.4 l -1.4,1.9 c -0.1,0.1 -0.2,0.2 -0.4,0.2 l -10.2,13.8 c -0.8,1.2 -1.7,2.4 -2.6,3.5 -1,1.3 -2.1,2.4 -3.3,3.7 -1.1,1.2 -2.2,2.5 -3.3,3.7 -1.1,1.2 -2.3,2.4 -3.3,3.7 -5.4,7.1 -10.2,14 -15.7,21.3 -0.6,-0.5 -1.3,-0.7 -1.8,-0.6 -0.9,0.8 -1.7,2.5 -2.6,3.2 -0.5,0 -2.4,-0.6 -2.8,-0.3 -2,2.6 -3.2,5.4 -4.7,8.2 -1.6,2.8 -3.5,5.5 -5.7,8.3 -1,1.2 -1.9,2.5 -3,3.6 -3.2,3.4 -6.7,6.4 -10,9.4 -2.1,1.9 -4.4,3.9 -6.6,6.3 -4.5,4.9 -8.1,11.4 -10.3,16.4 -0.5,1.2 -1.1,2.7 -1.7,4.1 -0.6,1.4 -1.3,2.8 -1.3,4 0,1.4 1.6,3.5 3.8,5.1 2.4,1.3 4.8,2.2 6.1,1.8 z"
         inkscape:connector-curvature="0" /><g
         id="g141"><path
           id="path143"
           d="m 196.5,250.1 2,3.2 7.7,-4.7 -1.7,-2.8 2.5,-1.5 c 0.7,0.7 1.3,1.3 1.9,1.8 0.6,0.5 1.2,0.9 1.9,1.2 l 1.8,3 -11.7,7.2 1.6,2.7 -3.3,2 -6.1,-10 3.4,-2.1 z"
           inkscape:connector-curvature="0" /><path
           id="path145"
           d="m 203.2,269.1 c -0.5,-0.8 -0.8,-1.7 -0.9,-2.6 -0.1,-0.9 0.1,-1.8 0.4,-2.7 0.4,-0.9 0.9,-1.8 1.8,-2.6 0.8,-0.9 1.9,-1.7 3.1,-2.5 1.3,-0.8 2.5,-1.3 3.6,-1.7 1.1,-0.3 2.2,-0.4 3.1,-0.3 0.9,0.1 1.8,0.4 2.5,0.9 0.7,0.5 1.4,1.1 1.9,2 0.5,0.8 0.8,1.7 0.9,2.5 0.1,0.9 0,1.8 -0.4,2.7 -0.3,0.9 -0.9,1.8 -1.7,2.6 -0.8,0.9 -1.8,1.7 -3.1,2.4 -1.3,0.8 -2.5,1.3 -3.6,1.7 -1.1,0.3 -2.2,0.4 -3.2,0.4 -1,-0.1 -1.8,-0.4 -2.6,-0.9 -0.6,-0.4 -1.3,-1.1 -1.8,-1.9 z m 3.1,-1.9 c 0.1,0.2 0.3,0.4 0.6,0.6 0.2,0.1 0.6,0.2 1,0.1 0.4,-0.1 1,-0.2 1.7,-0.5 0.7,-0.3 1.5,-0.7 2.5,-1.3 1,-0.6 1.8,-1.1 2.3,-1.6 0.5,-0.5 0.9,-0.9 1.2,-1.2 0.2,-0.4 0.3,-0.7 0.3,-1 0,-0.3 -0.1,-0.5 -0.3,-0.8 -0.1,-0.2 -0.3,-0.4 -0.6,-0.6 -0.2,-0.1 -0.6,-0.2 -1,-0.2 -0.4,0 -1,0.2 -1.6,0.5 -0.7,0.3 -1.5,0.7 -2.5,1.3 -1,0.6 -1.8,1.1 -2.3,1.6 -0.6,0.5 -1,0.9 -1.2,1.3 -0.3,0.4 -0.4,0.7 -0.4,1 0.1,0.3 0.2,0.5 0.3,0.8 z"
           inkscape:connector-curvature="0" /><path
           id="path147"
           d="m 211,281.7 c -0.5,-0.8 -0.8,-1.7 -0.9,-2.6 -0.1,-0.9 0.1,-1.8 0.4,-2.7 0.4,-0.9 0.9,-1.8 1.8,-2.6 0.8,-0.9 1.9,-1.7 3.1,-2.5 1.3,-0.8 2.5,-1.3 3.6,-1.7 1.1,-0.3 2.2,-0.4 3.1,-0.3 0.9,0.1 1.8,0.4 2.5,0.9 0.7,0.5 1.4,1.1 1.9,2 0.5,0.8 0.8,1.7 0.9,2.5 0.1,0.9 0,1.8 -0.4,2.7 -0.3,0.9 -0.9,1.8 -1.7,2.6 -0.8,0.9 -1.8,1.7 -3.1,2.4 -1.3,0.8 -2.5,1.3 -3.6,1.7 -1.1,0.3 -2.2,0.4 -3.2,0.4 -1,-0.1 -1.8,-0.4 -2.6,-0.9 -0.7,-0.4 -1.3,-1 -1.8,-1.9 z m 3.1,-1.9 c 0.1,0.2 0.3,0.4 0.6,0.6 0.2,0.1 0.6,0.2 1,0.1 0.4,-0.1 1,-0.2 1.7,-0.5 0.7,-0.3 1.5,-0.7 2.5,-1.3 1,-0.6 1.8,-1.1 2.3,-1.6 0.5,-0.5 0.9,-0.9 1.2,-1.2 0.2,-0.4 0.3,-0.7 0.3,-1 0,-0.3 -0.1,-0.5 -0.3,-0.8 -0.1,-0.2 -0.3,-0.4 -0.6,-0.6 -0.2,-0.1 -0.6,-0.2 -1,-0.2 -0.4,0 -1,0.2 -1.6,0.5 -0.7,0.3 -1.5,0.7 -2.5,1.3 -1,0.6 -1.8,1.1 -2.3,1.6 -0.6,0.5 -1,0.9 -1.2,1.3 -0.3,0.4 -0.4,0.7 -0.4,1 0.1,0.3 0.1,0.6 0.3,0.8 z"
           inkscape:connector-curvature="0" /><path
           id="path149"
           d="m 218.8,286.6 2,3.2 7.7,-4.7 -1.7,-2.8 2.5,-1.5 c 0.7,0.7 1.3,1.3 1.9,1.8 0.6,0.5 1.2,0.9 1.9,1.2 l 1.8,3 -11.7,7.2 1.6,2.7 -3.3,2 -6.1,-10 3.4,-2.1 z"
           inkscape:connector-curvature="0" /><path
           id="path151"
           d="m 225.6,305.6 c -0.5,-0.8 -0.8,-1.7 -0.9,-2.6 -0.1,-0.9 0.1,-1.8 0.4,-2.7 0.4,-0.9 0.9,-1.8 1.8,-2.6 0.8,-0.9 1.9,-1.7 3.1,-2.5 1.3,-0.8 2.5,-1.3 3.6,-1.7 1.1,-0.3 2.2,-0.4 3.1,-0.3 0.9,0.1 1.8,0.4 2.5,0.9 0.7,0.5 1.4,1.1 1.9,2 0.5,0.8 0.8,1.7 0.9,2.5 0.1,0.9 0,1.8 -0.4,2.7 -0.3,0.9 -0.9,1.8 -1.7,2.6 -0.8,0.9 -1.8,1.7 -3.1,2.4 -1.3,0.8 -2.5,1.3 -3.6,1.7 -1.1,0.3 -2.2,0.4 -3.2,0.4 -1,-0.1 -1.8,-0.4 -2.6,-0.9 -0.7,-0.4 -1.3,-1.1 -1.8,-1.9 z m 3.1,-1.9 c 0.1,0.2 0.3,0.4 0.6,0.6 0.2,0.1 0.6,0.2 1,0.1 0.4,-0.1 1,-0.2 1.7,-0.5 0.7,-0.3 1.5,-0.7 2.5,-1.3 1,-0.6 1.8,-1.1 2.3,-1.6 0.5,-0.5 0.9,-0.9 1.2,-1.2 0.2,-0.4 0.3,-0.7 0.3,-1 0,-0.3 -0.1,-0.5 -0.3,-0.8 -0.1,-0.2 -0.3,-0.4 -0.6,-0.6 -0.2,-0.1 -0.6,-0.2 -1,-0.2 -0.4,0 -1,0.2 -1.6,0.5 -0.7,0.3 -1.5,0.7 -2.5,1.3 -1,0.6 -1.8,1.1 -2.3,1.6 -0.6,0.5 -1,0.9 -1.2,1.3 -0.3,0.4 -0.4,0.7 -0.4,1 0.1,0.3 0.1,0.6 0.3,0.8 z"
           inkscape:connector-curvature="0" /><path
           id="path153"
           d="m 233.4,310.5 2,3.2 7.7,-4.7 -1.7,-2.8 2.5,-1.5 c 0.7,0.7 1.3,1.3 1.9,1.8 0.6,0.5 1.2,0.9 1.9,1.2 l 1.8,3 -11.7,7.2 1.6,2.7 -3.3,2 -6.1,-10 3.4,-2.1 z"
           inkscape:connector-curvature="0" /><path
           id="path155"
           d="m 240.2,329.5 c -0.5,-0.8 -0.8,-1.7 -0.9,-2.6 -0.1,-0.9 0.1,-1.8 0.4,-2.7 0.4,-0.9 0.9,-1.8 1.8,-2.6 0.8,-0.9 1.9,-1.7 3.1,-2.5 1.3,-0.8 2.5,-1.3 3.6,-1.7 1.1,-0.3 2.2,-0.4 3.1,-0.3 0.9,0.1 1.8,0.4 2.5,0.9 0.7,0.5 1.4,1.1 1.9,2 0.5,0.8 0.8,1.7 0.9,2.5 0.1,0.9 0,1.8 -0.4,2.7 -0.3,0.9 -0.9,1.8 -1.7,2.6 -0.8,0.9 -1.8,1.7 -3.1,2.4 -1.3,0.8 -2.5,1.3 -3.6,1.7 -1.1,0.3 -2.2,0.4 -3.2,0.4 -1,-0.1 -1.8,-0.4 -2.6,-0.9 -0.7,-0.4 -1.3,-1.1 -1.8,-1.9 z m 3.1,-1.9 c 0.1,0.2 0.3,0.4 0.6,0.6 0.2,0.1 0.6,0.2 1,0.1 0.4,-0.1 1,-0.2 1.7,-0.5 0.7,-0.3 1.5,-0.7 2.5,-1.3 1,-0.6 1.8,-1.1 2.3,-1.6 0.5,-0.5 0.9,-0.9 1.2,-1.2 0.2,-0.4 0.3,-0.7 0.3,-1 0,-0.3 -0.1,-0.5 -0.3,-0.8 -0.1,-0.2 -0.3,-0.4 -0.6,-0.6 -0.2,-0.1 -0.6,-0.2 -1,-0.2 -0.4,0 -1,0.2 -1.6,0.5 -0.7,0.3 -1.5,0.7 -2.5,1.3 -1,0.6 -1.8,1.1 -2.3,1.6 -0.5,0.5 -1,0.9 -1.2,1.3 -0.3,0.4 -0.4,0.7 -0.4,1 0,0.3 0.1,0.6 0.3,0.8 z"
           inkscape:connector-curvature="0" /><path
           id="path157"
           d="m 248,334.4 2,3.2 7.7,-4.7 -1.7,-2.9 2.5,-1.5 c 0.7,0.7 1.3,1.3 1.9,1.8 0.6,0.5 1.2,0.9 1.9,1.2 l 1.8,3 -11.7,7.2 1.6,2.7 -3.3,2 -6.1,-10 3.4,-2 z"
           inkscape:connector-curvature="0" /></g></g><g
       id="g159"><g
         id="g161"><path
           id="path163"
           d="m 121.1,568.7 13,0 c 3.3,0 6.4,0.4 9.2,1.2 2.8,0.8 5.2,2.1 7.2,3.9 2,1.8 3.5,4 4.7,6.8 1.1,2.8 1.7,6.1 1.7,10 0,3.9 -0.5,7.2 -1.6,10 -1.1,2.8 -2.6,5.1 -4.6,6.9 -2,1.8 -4.3,3.1 -7,4 -2.7,0.9 -5.6,1.3 -8.8,1.3 l -13.7,0 -0.1,-44.1 0,0 z m 12.4,34.7 c 1.6,0 3.1,-0.2 4.5,-0.6 1.4,-0.4 2.6,-1.1 3.6,-2 1,-1 1.8,-2.3 2.4,-3.9 0.6,-1.7 0.9,-3.8 0.9,-6.4 0,-2.6 -0.3,-4.7 -0.9,-6.3 -0.6,-1.6 -1.4,-2.9 -2.4,-3.8 -1,-0.9 -2.2,-1.5 -3.6,-1.9 -1.4,-0.3 -2.9,-0.5 -4.5,-0.5 l -0.7,0 0,25.4 0.7,0 z"
           inkscape:connector-curvature="0" /><path
           id="path165"
           d="m 182.1,603.4 -12.4,0 -2.2,9.4 -12,0 13.4,-44.1 14.1,0 13.4,44.1 -12.4,0 -1.9,-9.4 z m -2.1,-9 -0.7,-3.1 c -0.5,-2.1 -1.1,-4.4 -1.6,-6.9 -0.5,-2.5 -1.1,-4.8 -1.6,-7.1 l -0.3,0 c -0.5,2.3 -1,4.6 -1.5,7.1 -0.5,2.5 -1.1,4.8 -1.6,6.9 l -0.7,3.1 8,0 z"
           inkscape:connector-curvature="0" /><path
           id="path167"
           d="m 204.4,599.3 c 1.6,1.3 3.3,2.3 5.1,3.1 1.8,0.8 3.6,1.2 5.2,1.2 1.8,0 3,-0.3 3.8,-0.8 0.8,-0.5 1.2,-1.3 1.2,-2.3 0,-0.5 -0.1,-1 -0.4,-1.4 -0.3,-0.4 -0.7,-0.7 -1.2,-1 -0.5,-0.3 -1.1,-0.6 -1.9,-0.9 -0.7,-0.3 -1.6,-0.6 -2.5,-1 l -5.5,-2.3 c -1.2,-0.5 -2.3,-1.1 -3.4,-1.8 -1.1,-0.7 -2,-1.6 -2.9,-2.6 -0.8,-1 -1.5,-2.2 -1.9,-3.5 -0.5,-1.3 -0.7,-2.8 -0.7,-4.3 0,-1.9 0.4,-3.7 1.2,-5.3 0.8,-1.7 1.9,-3.1 3.4,-4.3 1.4,-1.2 3.2,-2.2 5.2,-3 2,-0.7 4.2,-1.1 6.6,-1.1 2.5,0 5.1,0.5 7.7,1.4 2.6,1 4.9,2.4 7,4.5 l -5.8,7.3 c -1.5,-1 -2.9,-1.8 -4.3,-2.4 -1.4,-0.5 -2.9,-0.8 -4.5,-0.8 -1.4,0 -2.6,0.2 -3.4,0.7 -0.8,0.5 -1.2,1.2 -1.2,2.2 0,1 0.6,1.8 1.7,2.4 1.2,0.6 2.7,1.2 4.8,2 l 5.4,2.1 c 2.8,1.1 4.9,2.6 6.4,4.5 1.5,1.9 2.2,4.5 2.2,7.5 0,1.9 -0.4,3.6 -1.2,5.4 -0.8,1.7 -1.9,3.2 -3.4,4.5 -1.5,1.3 -3.3,2.3 -5.4,3.1 -2.1,0.8 -4.6,1.2 -7.3,1.2 -2.8,0 -5.7,-0.5 -8.7,-1.5 -3,-1 -5.6,-2.6 -8,-4.8 l 6.7,-8 z"
           inkscape:connector-curvature="0" /><path
           id="path169"
           d="m 253.1,568.7 11.7,0 0,34.3 16.7,0 0,9.8 -28.4,0 0,-44.1 0,0 z"
           inkscape:connector-curvature="0" /><path
           id="path171"
           d="m 309.3,603.4 -12.3,0 -2.2,9.4 -12,0 13.4,-44.1 14.1,0 13.4,44.1 -12.4,0 -2,-9.4 z m -2.1,-9 -0.7,-3.1 c -0.5,-2.1 -1.1,-4.4 -1.6,-6.9 -0.5,-2.5 -1.1,-4.8 -1.6,-7.1 l -0.3,0 c -0.5,2.3 -1,4.6 -1.5,7.1 -0.5,2.5 -1.1,4.8 -1.6,6.9 l -0.7,3.1 8,0 z"
           inkscape:connector-curvature="0" /><path
           id="path173"
           d="m 327.2,568.7 15.8,0 c 2.3,0 4.5,0.2 6.5,0.5 2,0.3 3.8,0.9 5.3,1.7 1.5,0.8 2.7,1.9 3.6,3.4 0.9,1.4 1.3,3.2 1.3,5.4 0,1 -0.1,1.9 -0.4,2.9 -0.3,1 -0.7,1.9 -1.3,2.8 -0.6,0.9 -1.4,1.7 -2.3,2.3 -0.9,0.7 -2,1.2 -3.3,1.5 l 0,0.3 c 3.1,0.6 5.5,1.8 7,3.4 1.6,1.7 2.3,3.9 2.3,6.9 0,2.3 -0.5,4.2 -1.4,5.9 -0.9,1.7 -2.2,3 -3.7,4.1 -1.6,1.1 -3.4,1.8 -5.5,2.3 -2.1,0.5 -4.4,0.7 -6.7,0.7 l -17.2,0 0,-44.1 0,0 z m 15.6,17.3 c 1.9,0 3.3,-0.4 4.2,-1.3 0.9,-0.9 1.4,-2 1.4,-3.3 0,-1.4 -0.5,-2.3 -1.4,-2.9 -0.9,-0.6 -2.3,-0.9 -4.2,-0.9 l -3.9,0 0,8.4 3.9,0 z m 0.8,17.8 c 4.5,0 6.8,-1.7 6.8,-5 0,-1.6 -0.6,-2.8 -1.7,-3.5 -1.1,-0.7 -2.8,-1.1 -5.1,-1.1 l -4.8,0 0,9.6 4.8,0 z"
           inkscape:connector-curvature="0" /><path
           id="path175"
           d="m 384.5,613.6 c -3.1,0 -5.9,-0.5 -8.4,-1.6 -2.5,-1 -4.7,-2.5 -6.5,-4.5 -1.8,-2 -3.2,-4.4 -4.2,-7.3 -1,-2.9 -1.5,-6.1 -1.5,-9.7 0,-3.6 0.5,-6.8 1.5,-9.7 1,-2.8 2.4,-5.2 4.2,-7.1 1.8,-1.9 3.9,-3.4 6.5,-4.4 2.5,-1 5.3,-1.5 8.4,-1.5 3,0 5.8,0.5 8.4,1.5 2.5,1 4.7,2.5 6.5,4.4 1.8,1.9 3.2,4.3 4.2,7.1 1,2.8 1.5,6 1.5,9.6 0,3.6 -0.5,6.9 -1.5,9.7 -1,2.9 -2.4,5.3 -4.2,7.3 -1.8,2 -4,3.5 -6.5,4.5 -2.6,1.2 -5.4,1.7 -8.4,1.7 z m 0,-10 c 2.7,0 4.8,-1.2 6.3,-3.5 1.5,-2.3 2.3,-5.5 2.3,-9.5 0,-4 -0.8,-7.1 -2.3,-9.3 -1.5,-2.2 -3.6,-3.3 -6.3,-3.3 -2.7,0 -4.8,1.1 -6.3,3.3 -1.5,2.2 -2.3,5.3 -2.3,9.3 0,4 0.8,7.2 2.3,9.5 1.5,2.3 3.6,3.5 6.3,3.5 z"
           inkscape:connector-curvature="0" /><path
           id="path177"
           d="m 432.3,612.8 -7.6,-14.8 -4.5,0 0,14.8 -11.7,0 0,-44.1 16.7,0 c 2.4,0 4.6,0.2 6.8,0.7 2.1,0.5 4,1.2 5.6,2.3 1.6,1.1 2.9,2.5 3.8,4.4 1,1.8 1.4,4.1 1.4,6.9 0,3.2 -0.6,5.8 -1.9,7.9 -1.3,2.1 -3,3.7 -5.2,4.9 l 9.6,17.1 -13,0 0,-0.1 z m -12,-24 4.2,0 c 4.7,0 7.1,-1.9 7.1,-5.8 0,-1.9 -0.6,-3.2 -1.8,-3.9 -1.2,-0.7 -3,-1.1 -5.3,-1.1 l -4.2,0 0,10.8 0,0 z"
           inkscape:connector-curvature="0" /></g><g
         id="g179"><path
           id="path181"
           d="m 233.9,555.6 c -0.9,0 -1.7,-0.2 -2.4,-0.5 -0.7,-0.3 -1.3,-0.8 -1.8,-1.4 -0.5,-0.6 -0.9,-1.3 -1.2,-2.2 -0.3,-0.9 -0.4,-1.8 -0.4,-2.9 0,-1.1 0.1,-2 0.4,-2.9 0.3,-0.8 0.7,-1.6 1.2,-2.1 0.5,-0.6 1.1,-1 1.8,-1.3 0.7,-0.3 1.5,-0.5 2.4,-0.5 0.9,0 1.7,0.2 2.4,0.5 0.7,0.3 1.3,0.8 1.9,1.3 0.5,0.6 0.9,1.3 1.2,2.1 0.3,0.8 0.4,1.8 0.4,2.9 0,1.1 -0.1,2 -0.4,2.9 -0.3,0.9 -0.7,1.6 -1.2,2.2 -0.5,0.6 -1.1,1.1 -1.9,1.4 -0.7,0.3 -1.5,0.5 -2.4,0.5 z m 0,-2.1 c 0.5,0 1,-0.1 1.4,-0.3 0.4,-0.2 0.8,-0.6 1.1,-1 0.3,-0.4 0.5,-0.9 0.7,-1.5 0.2,-0.6 0.2,-1.3 0.2,-2 0,-1.5 -0.3,-2.7 -0.9,-3.5 -0.6,-0.8 -1.4,-1.3 -2.5,-1.3 -1.1,0 -1.9,0.4 -2.5,1.3 -0.6,0.8 -0.9,2 -0.9,3.5 0,0.7 0.1,1.4 0.2,2 0.2,0.6 0.4,1.1 0.7,1.5 0.3,0.4 0.7,0.8 1.1,1 0.4,0.2 0.9,0.3 1.4,0.3 z"
           inkscape:connector-curvature="0" /><path
           id="path183"
           d="m 242.2,542.1 2.4,0 4.1,7.5 1.4,2.8 0.1,0 c -0.1,-0.7 -0.1,-1.4 -0.2,-2.2 -0.1,-0.8 -0.1,-1.6 -0.1,-2.3 l 0,-5.8 2.3,0 0,13.3 -2.4,0 -4.1,-7.5 -1.4,-2.8 -0.1,0 c 0.1,0.7 0.1,1.4 0.2,2.2 0.1,0.8 0.1,1.5 0.1,2.3 l 0,5.8 -2.3,0 0,-13.3 z"
           inkscape:connector-curvature="0" /><path
           id="path185"
           d="m 255.1,542.1 8,0 0,2 -5.6,0 0,3.4 4.8,0 0,2 -4.8,0 0,3.9 5.8,0 0,2 -8.2,0 0,-13.3 0,0 z"
           inkscape:connector-curvature="0" /><path
           id="path187"
           d="m 269.8,542.1 3.5,0 c 2,0 3.6,0.5 4.7,1.6 1.1,1.1 1.7,2.7 1.7,4.9 0,1.1 -0.1,2.1 -0.4,2.9 -0.3,0.8 -0.7,1.5 -1.3,2.1 -0.5,0.6 -1.2,1 -2,1.3 -0.8,0.3 -1.7,0.4 -2.6,0.4 l -3.7,0 0.1,-13.2 0,0 z m 3.3,11.3 c 1.4,0 2.4,-0.4 3.1,-1.2 0.7,-0.8 1.1,-2 1.1,-3.6 0,-1.6 -0.4,-2.8 -1.1,-3.5 -0.7,-0.7 -1.8,-1.1 -3.1,-1.1 l -1,0 0,9.4 1,0 0,0 z"
           inkscape:connector-curvature="0" /><path
           id="path189"
           d="m 282.1,542.1 8,0 0,2 -5.6,0 0,3.4 4.8,0 0,2 -4.8,0 0,3.9 5.8,0 0,2 -8.2,0 0,-13.3 0,0 z"
           inkscape:connector-curvature="0" /><path
           id="path191"
           d="m 291.6,548.8 c 0,-1.1 0.2,-2.1 0.5,-2.9 0.3,-0.9 0.8,-1.6 1.3,-2.2 0.6,-0.6 1.2,-1 1.9,-1.4 0.7,-0.3 1.5,-0.5 2.4,-0.5 0.8,0 1.5,0.2 2.2,0.5 0.6,0.3 1.2,0.7 1.6,1.2 l -1.3,1.5 c -0.3,-0.3 -0.7,-0.6 -1.1,-0.8 -0.4,-0.2 -0.8,-0.3 -1.3,-0.3 -0.6,0 -1.1,0.1 -1.5,0.3 -0.5,0.2 -0.8,0.5 -1.2,1 -0.3,0.4 -0.6,0.9 -0.8,1.5 -0.2,0.6 -0.3,1.3 -0.3,2 0,1.5 0.3,2.7 1,3.6 0.7,0.9 1.5,1.3 2.7,1.3 0.6,0 1.1,-0.1 1.6,-0.3 0.4,-0.2 0.8,-0.6 1.2,-1 l 1.3,1.4 c -0.5,0.6 -1.2,1.1 -1.8,1.4 -0.7,0.3 -1.5,0.5 -2.3,0.5 -0.9,0 -1.6,-0.1 -2.4,-0.4 -0.7,-0.3 -1.4,-0.7 -1.9,-1.3 -0.5,-0.6 -1,-1.3 -1.3,-2.1 -0.3,-1 -0.5,-1.9 -0.5,-3 z"
           inkscape:connector-curvature="0" /><path
           id="path193"
           d="m 310.4,551.8 -4.4,0 -1,3.6 -2.4,0 4.3,-13.3 2.8,0 4.3,13.3 -2.5,0 -1.1,-3.6 z m -0.5,-1.9 -0.5,-1.6 c -0.2,-0.7 -0.4,-1.4 -0.6,-2.2 -0.2,-0.7 -0.4,-1.5 -0.6,-2.2 l -0.1,0 c -0.2,0.7 -0.4,1.5 -0.6,2.2 -0.2,0.7 -0.4,1.5 -0.6,2.2 l -0.5,1.6 3.5,0 z"
           inkscape:connector-curvature="0" /><path
           id="path195"
           d="m 315.5,542.1 3.5,0 c 2,0 3.6,0.5 4.7,1.6 1.1,1.1 1.7,2.7 1.7,4.9 0,1.1 -0.1,2.1 -0.4,2.9 -0.3,0.8 -0.7,1.5 -1.3,2.1 -0.5,0.6 -1.2,1 -2,1.3 -0.8,0.3 -1.7,0.4 -2.6,0.4 l -3.7,0 0.1,-13.2 0,0 z m 3.4,11.3 c 1.4,0 2.4,-0.4 3.1,-1.2 0.7,-0.8 1.1,-2 1.1,-3.6 0,-1.6 -0.4,-2.8 -1.1,-3.5 -0.7,-0.7 -1.8,-1.1 -3.1,-1.1 l -1,0 0,9.4 1,0 0,0 z"
           inkscape:connector-curvature="0" /><path
           id="path197"
           d="m 327.9,542.1 8,0 0,2 -5.6,0 0,3.4 4.8,0 0,2 -4.8,0 0,3.9 5.8,0 0,2 -8.2,0 0,-13.3 0,0 z"
           inkscape:connector-curvature="0" /></g><rect
         id="rect199"
         height="1.7"
         width="98.599998"
         y="547.90002"
         x="344.29999" /><rect
         id="rect201"
         height="1.7"
         width="99.5"
         y="547.90002"
         x="121.1" /><g
         id="g203"><path
           id="path205"
           d="m 179.8,631.5 2.4,0 0,5.3 5.4,0 0,-5.3 2.4,0 0,13.3 -2.4,0 0,-5.9 -5.4,0 0,5.9 -2.4,0 0,-13.3 z"
           inkscape:connector-curvature="0" /><path
           id="path207"
           d="m 199.4,641.2 -4.5,0 -1,3.6 -2.4,0 4.3,-13.3 2.8,0 4.3,13.3 -2.5,0 -1,-3.6 z m -0.6,-1.9 -0.5,-1.6 c -0.2,-0.7 -0.4,-1.4 -0.6,-2.2 -0.2,-0.7 -0.4,-1.5 -0.6,-2.2 l -0.1,0 c -0.2,0.7 -0.4,1.5 -0.6,2.2 -0.2,0.7 -0.4,1.5 -0.6,2.2 l -0.5,1.6 3.5,0 z"
           inkscape:connector-curvature="0" /><path
           id="path209"
           d="m 204.5,631.5 4.5,0 c 0.7,0 1.4,0.1 2,0.2 0.6,0.1 1.1,0.4 1.6,0.7 0.4,0.3 0.8,0.7 1.1,1.3 0.3,0.5 0.4,1.2 0.4,1.9 0,0.7 -0.1,1.4 -0.4,1.9 -0.3,0.5 -0.6,1 -1.1,1.3 -0.5,0.4 -1,0.6 -1.6,0.8 -0.6,0.2 -1.3,0.3 -2,0.3 l -2.1,0 0,4.9 -2.4,0 0,-13.3 z m 4.2,6.5 c 1.9,0 2.9,-0.8 2.9,-2.4 0,-0.8 -0.2,-1.4 -0.7,-1.7 -0.5,-0.3 -1.2,-0.5 -2.2,-0.5 l -1.9,0 0,4.6 1.9,0 0,0 z"
           inkscape:connector-curvature="0" /><path
           id="path211"
           d="m 216,631.5 4.5,0 c 0.7,0 1.4,0.1 2,0.2 0.6,0.1 1.1,0.4 1.6,0.7 0.4,0.3 0.8,0.7 1.1,1.3 0.3,0.5 0.4,1.2 0.4,1.9 0,0.7 -0.1,1.4 -0.4,1.9 -0.3,0.5 -0.6,1 -1.1,1.3 -0.5,0.4 -1,0.6 -1.6,0.8 -0.6,0.2 -1.3,0.3 -2,0.3 l -2.1,0 0,4.9 -2.4,0 0,-13.3 z m 4.2,6.5 c 1.9,0 2.9,-0.8 2.9,-2.4 0,-0.8 -0.2,-1.4 -0.7,-1.7 -0.5,-0.3 -1.2,-0.5 -2.2,-0.5 l -1.9,0 0,4.6 1.9,0 0,0 z"
           inkscape:connector-curvature="0" /><path
           id="path213"
           d="m 230,639.8 -4,-8.3 2.5,0 1.4,3.4 c 0.2,0.5 0.4,1 0.6,1.4 0.2,0.5 0.4,1 0.6,1.5 l 0.1,0 c 0.2,-0.5 0.4,-1 0.6,-1.5 0.2,-0.5 0.4,-0.9 0.6,-1.4 l 1.4,-3.4 2.5,0 -4,8.3 0,4.9 -2.3,0 0,-4.9 z"
           inkscape:connector-curvature="0" /><path
           id="path215"
           d="m 241.7,631.5 4.2,0 c 0.7,0 1.3,0.1 1.9,0.2 0.6,0.1 1.1,0.3 1.5,0.5 0.4,0.2 0.8,0.6 1,1 0.2,0.4 0.4,0.9 0.4,1.5 0,0.6 -0.2,1.2 -0.6,1.8 -0.4,0.5 -0.9,0.9 -1.7,1.1 l 0,0.1 c 1,0.2 1.7,0.5 2.2,1 0.5,0.5 0.8,1.2 0.8,2.1 0,0.7 -0.1,1.2 -0.4,1.7 -0.3,0.5 -0.6,0.9 -1.1,1.2 -0.5,0.3 -1,0.6 -1.6,0.7 -0.6,0.2 -1.3,0.2 -2,0.2 l -4.6,0 0,-13.1 0,0 z m 4,5.5 c 0.9,0 1.6,-0.2 2,-0.5 0.4,-0.3 0.6,-0.8 0.6,-1.4 0,-0.6 -0.2,-1 -0.6,-1.3 -0.4,-0.3 -1.1,-0.4 -1.9,-0.4 l -1.8,0 0,3.7 1.7,-0.1 0,0 z m 0.3,5.9 c 1,0 1.7,-0.2 2.3,-0.5 0.5,-0.4 0.8,-0.9 0.8,-1.7 0,-0.7 -0.3,-1.2 -0.8,-1.5 -0.5,-0.3 -1.3,-0.5 -2.3,-0.5 l -2,0 0,4.3 2,-0.1 0,0 z"
           inkscape:connector-curvature="0" /><path
           id="path217"
           d="m 253.5,631.5 2.4,0 0,13.3 -2.4,0 0,-13.3 z"
           inkscape:connector-curvature="0" /><path
           id="path219"
           d="m 266.1,644.8 -2.9,-5.2 -2,0 0,5.2 -2.4,0 0,-13.3 4.5,0 c 0.7,0 1.3,0.1 1.9,0.2 0.6,0.1 1.1,0.4 1.5,0.7 0.4,0.3 0.8,0.7 1,1.2 0.3,0.5 0.4,1.1 0.4,1.9 0,1 -0.2,1.8 -0.7,2.5 -0.5,0.6 -1.1,1.1 -1.9,1.3 l 3.2,5.5 -2.6,0 0,0 z m -4.8,-7.1 1.9,0 c 0.9,0 1.6,-0.2 2.1,-0.6 0.5,-0.4 0.7,-0.9 0.7,-1.7 0,-0.8 -0.2,-1.3 -0.7,-1.6 -0.5,-0.3 -1.2,-0.4 -2.1,-0.4 l -1.9,0 0,4.3 z"
           inkscape:connector-curvature="0" /><path
           id="path221"
           d="m 273.5,633.5 -3.8,0 0,-2 10,0 0,2 -3.8,0 0,11.3 -2.4,0 0,-11.3 0,0 z"
           inkscape:connector-curvature="0" /><path
           id="path223"
           d="m 281.6,631.5 2.4,0 0,5.3 5.4,0 0,-5.3 2.4,0 0,13.3 -2.4,0 0,-5.9 -5.4,0 0,5.9 -2.4,0 0,-13.3 z"
           inkscape:connector-curvature="0" /><path
           id="path225"
           d="m 294.7,631.5 3.5,0 c 2,0 3.6,0.5 4.7,1.6 1.1,1.1 1.7,2.7 1.7,4.9 0,1.1 -0.1,2.1 -0.4,2.9 -0.3,0.8 -0.7,1.5 -1.3,2.1 -0.5,0.6 -1.2,1 -2,1.3 -0.8,0.3 -1.7,0.4 -2.6,0.4 l -3.7,0 0.1,-13.2 0,0 z m 3.3,11.3 c 1.4,0 2.4,-0.4 3.1,-1.2 0.7,-0.8 1.1,-2 1.1,-3.6 0,-1.6 -0.4,-2.8 -1.1,-3.5 -0.7,-0.7 -1.8,-1.1 -3.1,-1.1 l -1,0 0,9.4 1,0 0,0 z"
           inkscape:connector-curvature="0" /><path
           id="path227"
           d="m 313,641.2 -4.5,0 -1,3.6 -2.4,0 4.3,-13.3 2.8,0 4.3,13.3 -2.5,0 -1,-3.6 z m -0.5,-1.9 -0.5,-1.6 c -0.2,-0.7 -0.4,-1.4 -0.6,-2.2 -0.2,-0.7 -0.4,-1.5 -0.6,-2.2 l -0.1,0 c -0.2,0.7 -0.4,1.5 -0.6,2.2 -0.2,0.7 -0.4,1.5 -0.6,2.2 l -0.5,1.6 3.5,0 z"
           inkscape:connector-curvature="0" /><path
           id="path229"
           d="m 319.4,639.8 -4,-8.3 2.5,0 1.4,3.4 c 0.2,0.5 0.4,1 0.6,1.4 0.2,0.5 0.4,1 0.6,1.5 l 0.1,0 c 0.2,-0.5 0.4,-1 0.6,-1.5 0.2,-0.5 0.4,-0.9 0.6,-1.4 l 1.4,-3.4 2.5,0 -4,8.3 0,4.9 -2.4,0 0.1,-4.9 0,0 z"
           inkscape:connector-curvature="0" /><path
           id="path231"
           d="m 331.1,631.5 2.4,0 0,11.3 5.5,0 0,2 -7.9,0 0,-13.3 z"
           inkscape:connector-curvature="0" /><path
           id="path233"
           d="m 347.9,641.2 -4.5,0 -1,3.6 -2.4,0 4.3,-13.3 2.8,0 4.3,13.3 -2.5,0 -1,-3.6 z m -0.5,-1.9 -0.5,-1.6 c -0.2,-0.7 -0.4,-1.4 -0.6,-2.2 -0.2,-0.7 -0.4,-1.5 -0.6,-2.2 l -0.1,0 c -0.2,0.7 -0.4,1.5 -0.6,2.2 -0.2,0.7 -0.4,1.5 -0.6,2.2 l -0.5,1.6 3.5,0 z"
           inkscape:connector-curvature="0" /><path
           id="path235"
           d="m 353,631.5 4.2,0 c 0.7,0 1.3,0.1 1.9,0.2 0.6,0.1 1.1,0.3 1.5,0.5 0.4,0.2 0.8,0.6 1,1 0.2,0.4 0.4,0.9 0.4,1.5 0,0.6 -0.2,1.2 -0.6,1.8 -0.4,0.5 -0.9,0.9 -1.7,1.1 l 0,0.1 c 1,0.2 1.7,0.5 2.2,1 0.5,0.5 0.8,1.2 0.8,2.1 0,0.7 -0.1,1.2 -0.4,1.7 -0.3,0.5 -0.6,0.9 -1.1,1.2 -0.5,0.3 -1,0.6 -1.6,0.7 -0.6,0.2 -1.3,0.2 -2,0.2 l -4.6,0 0,-13.1 z m 4,5.5 c 0.9,0 1.6,-0.2 2,-0.5 0.4,-0.3 0.6,-0.8 0.6,-1.4 0,-0.6 -0.2,-1 -0.6,-1.3 -0.4,-0.3 -1.1,-0.4 -1.9,-0.4 l -1.7,0 0,3.7 1.6,-0.1 0,0 z m 0.3,5.9 c 1,0 1.7,-0.2 2.3,-0.5 0.5,-0.4 0.8,-0.9 0.8,-1.7 0,-0.7 -0.3,-1.2 -0.8,-1.5 -0.5,-0.3 -1.3,-0.5 -2.3,-0.5 l -2,0 0,4.3 2,-0.1 0,0 z"
           inkscape:connector-curvature="0" /><path
           id="path237"
           d="m 370,645 c -0.9,0 -1.7,-0.2 -2.4,-0.5 -0.7,-0.3 -1.3,-0.8 -1.8,-1.4 -0.5,-0.6 -0.9,-1.3 -1.2,-2.2 -0.3,-0.9 -0.4,-1.8 -0.4,-2.9 0,-1.1 0.1,-2 0.4,-2.9 0.3,-0.8 0.7,-1.6 1.2,-2.1 0.5,-0.6 1.1,-1 1.8,-1.3 0.7,-0.3 1.5,-0.5 2.4,-0.5 0.9,0 1.7,0.2 2.4,0.5 0.7,0.3 1.3,0.8 1.9,1.3 0.5,0.6 0.9,1.3 1.2,2.1 0.3,0.8 0.4,1.8 0.4,2.9 0,1.1 -0.1,2 -0.4,2.9 -0.3,0.9 -0.7,1.6 -1.2,2.2 -0.5,0.6 -1.1,1.1 -1.9,1.4 -0.7,0.3 -1.5,0.5 -2.4,0.5 z m 0,-2 c 0.5,0 1,-0.1 1.4,-0.3 0.4,-0.2 0.8,-0.6 1.1,-1 0.3,-0.4 0.5,-0.9 0.7,-1.5 0.2,-0.6 0.2,-1.3 0.2,-2 0,-1.5 -0.3,-2.7 -0.9,-3.5 -0.6,-0.8 -1.4,-1.3 -2.5,-1.3 -1.1,0 -1.9,0.4 -2.5,1.3 -0.6,0.8 -0.9,2 -0.9,3.5 0,0.7 0.1,1.4 0.2,2 0.2,0.6 0.4,1.1 0.7,1.5 0.3,0.4 0.7,0.8 1.1,1 0.4,0.2 0.9,0.3 1.4,0.3 z"
           inkscape:connector-curvature="0" /><path
           id="path239"
           d="m 385.5,644.8 -2.9,-5.2 -2,0 0,5.2 -2.4,0 0,-13.3 4.5,0 c 0.7,0 1.3,0.1 1.9,0.2 0.6,0.1 1.1,0.4 1.5,0.7 0.4,0.3 0.8,0.7 1,1.2 0.3,0.5 0.4,1.1 0.4,1.9 0,1 -0.2,1.8 -0.7,2.5 -0.5,0.6 -1.1,1.1 -1.9,1.3 l 3.2,5.5 -2.6,0 0,0 z m -4.9,-7.1 1.9,0 c 0.9,0 1.6,-0.2 2.1,-0.6 0.5,-0.4 0.7,-0.9 0.7,-1.7 0,-0.8 -0.2,-1.3 -0.7,-1.6 -0.5,-0.3 -1.2,-0.4 -2.1,-0.4 l -1.9,0 0,4.3 z"
           inkscape:connector-curvature="0" /></g><rect
         id="rect241"
         height="1.7"
         width="46.799999"
         y="637.29999"
         x="396.10001" /><rect
         id="rect243"
         height="1.7"
         width="49.400002"
         y="637.29999"
         x="121.1" /></g></g></svg>